<?xml version="1.0" encoding="UTF-8" standalone="no"?>
<svg
   xmlns:dc="http://purl.org/dc/elements/1.1/"
   xmlns:cc="http://creativecommons.org/ns#"
   xmlns:rdf="http://www.w3.org/1999/02/22-rdf-syntax-ns#"
   xmlns:svg="http://www.w3.org/2000/svg"
   xmlns="http://www.w3.org/2000/svg"
   xmlns:sodipodi="http://sodipodi.sourceforge.net/DTD/sodipodi-0.dtd"
   xmlns:inkscape="http://www.inkscape.org/namespaces/inkscape"
   aria-hidden="true"
   focusable="false"
   data-prefix="fas"
   data-icon="envelope-square"
   class="svg-inline--fa fa-envelope-square fa-w-14"
   role="img"
   viewBox="0 0 448 512"
   version="1.1"
   id="svg43"
   sodipodi:docname="envelope-square-solid.svg"
   inkscape:version="1.0.2-2 (e86c870879, 2021-01-15)">
  <metadata
     id="metadata49">
    <rdf:RDF>
      <cc:Work
         rdf:about="">
        <dc:format>image/svg+xml</dc:format>
        <dc:type
           rdf:resource="http://purl.org/dc/dcmitype/StillImage" />
        <dc:title></dc:title>
      </cc:Work>
    </rdf:RDF>
  </metadata>
  <defs
     id="defs47" />
  <sodipodi:namedview
     pagecolor="#ffffff"
     bordercolor="#666666"
     borderopacity="1"
     objecttolerance="10"
     gridtolerance="10"
     guidetolerance="10"
     inkscape:pageopacity="0"
     inkscape:pageshadow="2"
     inkscape:window-width="2400"
     inkscape:window-height="1271"
     id="namedview45"
     showgrid="false"
     inkscape:zoom="1.6210938"
     inkscape:cx="224"
     inkscape:cy="256"
     inkscape:window-x="-9"
     inkscape:window-y="-9"
     inkscape:window-maximized="1"
     inkscape:current-layer="svg43" />
  <path
     style="fill:#808080;stroke-width:0.616867"
     d="M 41.812074,479.26344 C 25.109084,477.0773 10.248414,465.5008 3.8123539,449.66154 0.16365386,440.68205 0.38554386,453.22172 0.38554386,256 c 0,-197.417858 -0.22788,-184.667298 3.46273004,-193.749942 3.31167,-8.150086 10.1014701,-16.651285 17.1997301,-21.535018 3.91121,-2.690983 10.83146,-5.787342 16.04115,-7.177369 4.16995,-1.112606 10.58171,-1.152129 186.910846,-1.152129 176.06176,0 182.74722,0.04104 186.91084,1.14753 18.57254,4.935659 32.13174,19.090797 35.79902,37.372439 0.82508,4.113056 0.91505,26.117747 0.76556,187.253529 l -0.1694,182.59277 -2.04133,5.86024 c -2.64015,7.57933 -6.68785,14.03954 -12.17486,19.43132 -6.17886,6.07164 -12.22957,9.46718 -22.21692,12.46773 -3.47671,1.04452 -12.86834,1.10475 -184.40544,1.18255 -99.40819,0.0451 -182.503126,-0.14851 -184.655396,-0.43021 z M 370.65204,381.67297 c 5.35781,-2.64803 8.75548,-6.06475 11.41377,-11.47775 l 1.70286,-3.46751 0.16391,-74.48675 c 0.0902,-40.96771 -0.007,-74.48674 -0.21507,-74.48674 -0.20844,0 -3.1969,2.1697 -6.64102,4.82156 -8.91045,6.86075 -33.21029,24.79252 -61.16324,45.13467 -13.2318,9.62915 -28.91566,21.16475 -34.85301,25.63464 -13.69032,10.30669 -20.92578,15.05498 -28.68434,18.82417 -11.92535,5.79348 -20.38443,7.74039 -31.2488,7.19212 -14.96078,-0.755 -28.9554,-7.14113 -49.47678,-22.57764 -5.13539,-3.86291 -16.9708,-12.58622 -26.30092,-19.38511 -31.83313,-23.19692 -51.498306,-37.66274 -66.145996,-48.65737 -8.05066,-6.04288 -14.78659,-10.98704 -14.96873,-10.98704 -0.18214,0 -0.25741,33.51903 -0.16726,74.48674 l 0.16391,74.48675 1.70287,3.46751 c 3.27685,6.67256 9.53591,11.84275 16.25892,13.4304 1.42131,0.33565 59.581946,0.52669 143.072716,0.46996 l 140.67787,-0.0956 z M 232.83581,286.48956 c 7.73502,-2.59325 14.07072,-6.54983 31.56901,-19.71453 5.93735,-4.46691 18.56771,-13.76367 28.06747,-20.65947 40.3434,-29.28493 63.04547,-46.16228 80.69227,-59.98889 l 10.98623,-8.60794 -0.19105,-16.12322 -0.19107,-16.12322 -1.70286,-3.46751 c -2.65833,-5.41308 -6.05596,-8.82972 -11.41387,-11.47775 L 365.94351,128 H 224 82.056494 l -4.70843,2.32703 c -5.35791,2.64803 -8.75554,6.06467 -11.41387,11.47775 l -1.70287,3.46751 -0.19113,16.13353 -0.19113,16.13354 12.22004,9.52568 c 15.95442,12.43668 39.417426,29.89549 74.832096,55.68254 15.77639,11.48751 32.01543,23.4263 36.08675,26.53065 23.17015,17.66705 33.22729,21.44251 45.84786,17.21133 z"
     id="path51" />
</svg>
