<?xml version="1.0" encoding="UTF-8" standalone="no"?>
<svg
   xmlns:dc="http://purl.org/dc/elements/1.1/"
   xmlns:cc="http://creativecommons.org/ns#"
   xmlns:rdf="http://www.w3.org/1999/02/22-rdf-syntax-ns#"
   xmlns:svg="http://www.w3.org/2000/svg"
   xmlns="http://www.w3.org/2000/svg"
   xmlns:sodipodi="http://sodipodi.sourceforge.net/DTD/sodipodi-0.dtd"
   xmlns:inkscape="http://www.inkscape.org/namespaces/inkscape"
   aria-hidden="true"
   focusable="false"
   data-prefix="fas"
   data-icon="file-alt"
   class="svg-inline--fa fa-file-alt fa-w-12"
   role="img"
   viewBox="0 0 526 520"
   version="1.1"
   id="svg19"
   sodipodi:docname="file-alt-solid.svg"
   width="526"
   height="520"
   inkscape:version="1.0.2-2 (e86c870879, 2021-01-15)">
  <metadata
     id="metadata25">
    <rdf:RDF>
      <cc:Work
         rdf:about="">
        <dc:format>image/svg+xml</dc:format>
        <dc:type
           rdf:resource="http://purl.org/dc/dcmitype/StillImage" />
        <dc:title></dc:title>
      </cc:Work>
    </rdf:RDF>
  </metadata>
  <defs
     id="defs23" />
  <sodipodi:namedview
     pagecolor="#ffffff"
     bordercolor="#666666"
     borderopacity="1"
     objecttolerance="10"
     gridtolerance="10"
     guidetolerance="10"
     inkscape:pageopacity="0"
     inkscape:pageshadow="2"
     inkscape:window-width="2400"
     inkscape:window-height="1271"
     id="namedview21"
     showgrid="false"
     width="513px"
     inkscape:zoom="1.0811704"
     inkscape:cx="476.97699"
     inkscape:cy="211.69865"
     inkscape:window-x="-9"
     inkscape:window-y="-9"
     inkscape:window-maximized="1"
     inkscape:current-layer="svg19" />
  <path
     style="fill:#808080;stroke-width:0.639201"
     d="M 360.42874,93.962006 V 30.041911 l 2.0774,0.01266 c 4.5056,0.02746 11.18481,1.368202 14.22223,2.854873 4.83258,2.365324 106.1802,103.962526 108.72489,108.992636 1.48795,2.94125 1.82317,4.53379 2.05184,9.74782 l 0.27332,6.23221 h -63.67483 -63.67485 z"
     id="path29" />
  <path
     style="fill:#808080;stroke-width:0.62631"
     d="M 42.363649,440.3254 42.843273,290.21297 C 43.643081,39.889795 43.257803,68.750406 43.257803,68.750406 40.460964,54.691682 65.995447,26.900304 83.160645,30.299877 l 96.310575,-0.552801 163.33767,0.772223 -1.16018,144.857891 150.08339,-0.7926 c 0.90102,90.82007 -0.4967,172.92239 -0.1977,265.72263 0,0 -8.72889,35.57397 -41.03908,38.90362 -17.13084,0.67051 -366.203459,0.57435 -367.807253,0.43829 C 56.223175,477.40395 39.466655,446.48401 42.363649,440.3254 Z M 338.29327,406.13429 c 1.69736,-0.77702 3.51103,-2.27529 4.55074,-3.75938 1.56543,-2.23448 1.7496,-3.10254 1.95034,-9.19233 0.12522,-3.79916 -0.087,-7.69891 -0.48771,-8.96379 -0.88128,-2.78154 -4.94499,-6.34064 -8.22216,-7.2012 -3.43731,-0.90259 -172.80423,-0.90259 -176.24155,0 -3.27717,0.86056 -7.34089,4.41966 -8.22216,7.2012 -0.40075,1.26488 -0.61293,5.16463 -0.4877,8.96379 0.20037,6.07912 0.38667,6.96038 1.94018,9.17784 1.00435,1.43359 2.87795,2.99571 4.50842,3.7589 l 2.78989,1.30589 87.54982,4.8e-4 87.5498,4.8e-4 z m 0,-60.90501 c 1.69754,-0.77709 3.51092,-2.27521 4.55074,-3.75956 1.54605,-2.20695 1.75206,-3.13818 1.95006,-8.81449 0.12174,-3.49075 0.035,-7.28626 -0.1928,-8.43447 -0.5332,-2.68773 -3.81849,-6.21224 -7.10772,-7.62528 -2.45638,-1.05526 -6.8042,-1.10913 -89.52984,-1.10913 -82.72564,0 -87.07347,0.0538 -89.52985,1.10913 -3.28923,1.41304 -6.57452,4.93755 -7.10773,7.62528 -0.22779,1.14821 -0.31453,4.94372 -0.19278,8.43447 0.19764,5.6662 0.40567,6.60991 1.9399,8.80001 1.00446,1.43384 2.87778,2.99579 4.50842,3.75907 l 2.78989,1.30589 87.54982,4.8e-4 87.5498,4.8e-4 z m 0.91031,-61.38535 c 1.24573,-0.80724 2.9634,-2.4316 3.81704,-3.60968 1.44648,-1.99626 1.55207,-2.68669 1.55207,-10.14873 0,-7.66733 -0.0733,-8.11147 -1.72868,-10.47695 -1.04133,-1.48803 -2.85074,-2.98386 -4.55074,-3.76208 l -2.82209,-1.29189 h -87.50747 -87.50748 l -2.82209,1.29189 c -1.69735,0.77701 -3.51103,2.27528 -4.55074,3.75937 -1.56543,2.23448 -1.74961,3.10255 -1.95033,9.19234 -0.12291,3.72897 0.0883,7.70305 0.47403,8.92065 0.85311,2.69262 4.76969,6.5114 7.43537,7.24969 1.13038,0.31306 39.54338,0.50304 89.93465,0.44478 l 87.9615,-0.10169 z"
     id="path27"
     sodipodi:nodetypes="csccccccccscsssssssssscccsssssssssssscccsssssscccsssssscs" />
  <g
     inkscape:groupmode="layer"
     id="layer1"
     inkscape:label="Layer 1" />
</svg>
