<?xml version="1.0" encoding="UTF-8" standalone="no"?>
<svg
   xmlns:dc="http://purl.org/dc/elements/1.1/"
   xmlns:cc="http://creativecommons.org/ns#"
   xmlns:rdf="http://www.w3.org/1999/02/22-rdf-syntax-ns#"
   xmlns:svg="http://www.w3.org/2000/svg"
   xmlns="http://www.w3.org/2000/svg"
   xmlns:sodipodi="http://sodipodi.sourceforge.net/DTD/sodipodi-0.dtd"
   xmlns:inkscape="http://www.inkscape.org/namespaces/inkscape"
   aria-hidden="true"
   focusable="false"
   data-prefix="fas"
   data-icon="phone-square"
   class="svg-inline--fa fa-phone-square fa-w-14"
   role="img"
   viewBox="0 0 448 512"
   version="1.1"
   id="svg19"
   sodipodi:docname="phone-square-solid.svg"
   inkscape:version="1.0.2-2 (e86c870879, 2021-01-15)">
  <metadata
     id="metadata25">
    <rdf:RDF>
      <cc:Work
         rdf:about="">
        <dc:format>image/svg+xml</dc:format>
        <dc:type
           rdf:resource="http://purl.org/dc/dcmitype/StillImage" />
      </cc:Work>
    </rdf:RDF>
  </metadata>
  <defs
     id="defs23" />
  <sodipodi:namedview
     pagecolor="#ffffff"
     bordercolor="#666666"
     borderopacity="1"
     objecttolerance="10"
     gridtolerance="10"
     guidetolerance="10"
     inkscape:pageopacity="0"
     inkscape:pageshadow="2"
     inkscape:window-width="1431"
     inkscape:window-height="1208"
     id="namedview21"
     showgrid="false"
     inkscape:zoom="1.5644531"
     inkscape:cx="224"
     inkscape:cy="256"
     inkscape:window-x="2657"
     inkscape:window-y="55"
     inkscape:window-maximized="0"
     inkscape:current-layer="svg19" />
  <path
     style="fill:#999999;stroke-width:0.639201"
     d="M 37.58107,475.55834 C 28.32537,473.71472 20.41648,469.43794 13.36235,462.46193 7.8225603,456.98348 4.0211703,450.97361 1.4351803,443.6055 l -1.79473004,-5.11361 V 252.804 67.116105 L 1.4351803,62.002497 c 2.58599,-7.368113 6.38738,-13.377977 11.9271697,-18.85643 7.23536,-7.155243 14.99234,-11.27964 24.71174,-13.139269 7.25606,-1.388314 362.03895,-1.388314 369.29501,0 9.71941,1.859629 17.47638,5.984026 24.71174,13.139269 5.5398,5.478453 9.34119,11.488317 11.92718,18.85643 l 1.79473,5.113608 V 252.804 438.49189 l -1.79473,5.11361 c -2.58599,7.36811 -6.38738,13.37798 -11.92718,18.85643 -7.23536,7.15524 -14.99233,11.27964 -24.71174,13.13927 -6.89635,1.31949 -363.15579,1.27821 -369.78803,-0.0428 z m 72.00195,-62.98473 c 83.1727,-5.03241 158.41769,-44.01076 210.29925,-108.93904 38.73796,-48.47946 60.91307,-108.68623 62.75567,-170.3855 0.29236,-9.78959 0.18592,-13.75258 -0.41856,-15.58419 -0.93201,-2.82402 -4.52832,-7.05836 -7.1433,-8.41062 -0.98397,-0.50883 -17.40109,-4.53763 -36.48249,-8.95289 -37.4246,-8.659704 -37.52118,-8.672963 -43.18959,-5.928936 -1.54262,0.746773 -3.6086,2.467431 -4.59107,3.823681 -0.98246,1.35626 -8.78082,18.780615 -17.32969,38.720815 -12.86699,30.0122 -15.58865,36.88054 -15.80622,39.88839 -0.32037,4.42917 0.66454,7.63523 3.25026,10.58022 1.07553,1.22495 10.3934,9.12908 20.70638,17.56473 10.31297,8.43565 18.75086,15.50559 18.75086,15.71098 0,0.20539 -1.95937,4.14175 -4.35417,8.74748 -21.32125,41.00554 -55.61035,75.19086 -97.56132,97.26602 l -7.90486,4.15964 -15.49089,-18.93834 c -8.51998,-10.41608 -16.09805,-19.51257 -16.84013,-20.21443 -2.82626,-2.67301 -6.28531,-3.95294 -10.61767,-3.92877 -3.98935,0.0222 -5.61829,0.6522 -40.90632,15.81969 -20.21333,8.68809 -37.65775,16.48775 -38.76538,17.33257 -2.89505,2.20817 -5.34203,7.46457 -5.34203,11.47533 0,3.17733 14.51752,67.67276 16.10769,71.55989 1.58834,3.88268 5.59332,7.33641 10.09541,8.70589 2.30017,0.69968 8.36438,0.67849 20.77817,-0.0726 z"
     id="path27" />
</svg>
